<svg aria-hidden="true" style="width:0;height:0;position:absolute;overflow:hidden" xmlns="http://www.w3.org/2000/svg"><defs><symbol id="icon-search" viewBox="0 0 32 32"><path d="m31.008 27.232-7.58-6.446c-.784-.706-1.622-1.028-2.298-.998A11.946 11.946 0 0 0 24 12.002c0-6.628-5.372-12-12-12s-12 5.372-12 12 5.372 12 12 12c2.972 0 5.69-1.08 7.786-2.87-.032.676.292 1.514.998 2.298l6.446 7.58c1.104 1.226 2.906 1.33 4.006.23s.996-2.904-.23-4.006zM12 20a8 8 0 1 1 0-16 8 8 0 0 1 0 16z"/></symbol></defs></svg>